<svg width="69" height="48" viewBox="0 0 69 48" fill="none" xmlns="http://www.w3.org/2000/svg">
<path d="M69 4.53884C68.6382 15.9867 67.4083 35.6479 64.3504 40.8959C61.0537 46.5524 54.3939 49.1129 48.3033 47.5324C51.8039 43.9887 53.9651 39.1411 53.9651 33.8028C53.9651 30.2164 51.8584 24.1913 49.103 17.8448C55.7741 12.8294 64.0684 7.57114 69 4.53884ZM34.1391 0C38.2956 7.15472 48.4676 30.7506 48.4676 33.8025C48.4676 40.6984 43.4782 46.4615 36.8875 47.735C35.2007 48.0637 33.3808 48.092 31.3903 47.735C24.8001 46.4615 19.8103 40.6984 19.8103 33.8025C19.8107 30.6843 29.3747 8.00204 34.1391 0ZM0 4.53884C4.7981 7.48959 12.78 12.5478 19.3527 17.4378C16.511 23.9325 14.3135 30.1396 14.3135 33.8025C14.3135 39.2129 16.5333 44.1196 20.1179 47.6752C17.8872 48.1608 15.5616 48.0985 13.3517 47.511C9.65474 46.5293 6.56428 44.1801 4.64994 40.8948C1.58949 35.6475 0.360699 15.9863 0 4.53884Z" fill="white"/>
<path d="M34.1391 0C38.2956 7.15472 48.4676 30.7506 48.4676 33.8025C48.4676 40.6984 43.4782 46.4615 36.8875 47.735C35.2007 48.0637 33.3808 48.092 31.3904 47.735C24.8001 46.4615 19.8103 40.6984 19.8103 33.8025C19.8107 30.6843 29.3747 8.00204 34.1391 0Z" fill="#BF9766"/>
</svg>
