<svg width="228" height="58" viewBox="0 0 228 58" fill="none" xmlns="http://www.w3.org/2000/svg">
<path d="M69 9.53884C68.6382 20.9867 67.4083 40.6479 64.3504 45.8959C61.0537 51.5524 54.3939 54.1129 48.3033 52.5324C51.8039 48.9887 53.9651 44.1411 53.9651 38.8028C53.9651 35.2164 51.8584 29.1913 49.103 22.8448C55.7741 17.8294 64.0684 12.5711 69 9.53884ZM34.1391 5C38.2956 12.1547 48.4676 35.7506 48.4676 38.8025C48.4676 45.6984 43.4782 51.4615 36.8875 52.735C35.2007 53.0637 33.3808 53.092 31.3903 52.735C24.8001 51.4615 19.8103 45.6984 19.8103 38.8025C19.8107 35.6843 29.3747 13.002 34.1391 5ZM0 9.53884C4.7981 12.4896 12.78 17.5478 19.3527 22.4378C16.511 28.9325 14.3135 35.1396 14.3135 38.8025C14.3135 44.2129 16.5333 49.1196 20.1179 52.6752C17.8872 53.1608 15.5616 53.0985 13.3517 52.511C9.65474 51.5293 6.56428 49.1801 4.64994 45.8948C1.58949 40.6475 0.360699 20.9863 0 9.53884Z" fill="white"/>
<path d="M34.1391 5C38.2956 12.1547 48.4676 35.7506 48.4676 38.8025C48.4676 45.6984 43.4782 51.4615 36.8875 52.735C35.2007 53.0637 33.3808 53.092 31.3904 52.735C24.8001 51.4615 19.8103 45.6984 19.8103 38.8025C19.8107 35.6843 29.3747 13.002 34.1391 5Z" fill="#BF9766"/>
<path d="M82.764 7.24H87.912V7.6H87.732C87.564 7.6 87.408 7.672 87.264 7.816C87.12 7.936 87 8.092 86.904 8.284C86.808 8.452 86.724 8.656 86.652 8.896C86.604 9.112 86.58 9.304 86.58 9.472V28.66C86.58 28.852 86.604 29.068 86.652 29.308C86.7 29.524 86.772 29.728 86.868 29.92C86.988 30.112 87.108 30.28 87.228 30.424C87.372 30.568 87.54 30.64 87.732 30.64H87.912V31H82.764V30.64H82.944C83.136 30.64 83.304 30.58 83.448 30.46C83.592 30.316 83.712 30.148 83.808 29.956C83.928 29.74 84.012 29.524 84.06 29.308C84.108 29.068 84.132 28.852 84.132 28.66V9.472C84.132 9.304 84.108 9.112 84.06 8.896C84.012 8.68 83.928 8.476 83.808 8.284C83.712 8.092 83.592 7.936 83.448 7.816C83.304 7.672 83.136 7.6 82.944 7.6H82.764V7.24ZM112.182 30.64H112.362C112.53 30.64 112.686 30.568 112.83 30.424C112.974 30.28 113.094 30.112 113.19 29.92C113.31 29.728 113.394 29.524 113.442 29.308C113.49 29.068 113.514 28.852 113.514 28.66V9.724L104.226 31.396L95.4059 10.84V28.66C95.4059 28.852 95.4299 29.068 95.4779 29.308C95.5259 29.524 95.5979 29.728 95.6939 29.92C95.8139 30.112 95.9459 30.28 96.0899 30.424C96.2339 30.568 96.4019 30.64 96.5939 30.64H96.7739V31H92.8499V30.64H93.0299C93.1979 30.64 93.3539 30.568 93.4979 30.424C93.6419 30.28 93.7619 30.112 93.8579 29.92C93.9539 29.728 94.0259 29.524 94.0739 29.308C94.1219 29.068 94.1459 28.852 94.1459 28.66V9.472C94.1459 9.304 94.1219 9.112 94.0739 8.896C94.0259 8.68 93.9539 8.476 93.8579 8.284C93.7619 8.092 93.6419 7.936 93.4979 7.816C93.3539 7.672 93.1979 7.6 93.0299 7.6H92.8499V7.24H96.5219L104.874 26.932L113.226 7.24H117.294V7.6H117.114C116.922 7.6 116.754 7.672 116.61 7.816C116.466 7.936 116.334 8.092 116.214 8.284C116.118 8.476 116.046 8.68 115.998 8.896C115.95 9.112 115.926 9.304 115.926 9.472V28.66C115.926 28.852 115.95 29.068 115.998 29.308C116.046 29.524 116.118 29.728 116.214 29.92C116.334 30.112 116.466 30.28 116.61 30.424C116.754 30.568 116.922 30.64 117.114 30.64H117.294V31H112.182V30.64ZM122.202 7.24H127.314C129.978 7.24 131.994 7.756 133.362 8.788C134.754 9.796 135.45 11.236 135.45 13.108C135.45 14.116 135.21 15.016 134.73 15.808C134.25 16.6 133.614 17.272 132.822 17.824C132.054 18.352 131.178 18.76 130.194 19.048C129.234 19.336 128.274 19.48 127.314 19.48H125.946V28.66C125.946 28.852 125.97 29.068 126.018 29.308C126.066 29.524 126.138 29.728 126.234 29.92C126.354 30.112 126.474 30.28 126.594 30.424C126.738 30.568 126.906 30.64 127.098 30.64H127.278V31H122.202V30.64H122.382C122.55 30.64 122.706 30.568 122.85 30.424C122.994 30.28 123.114 30.112 123.21 29.92C123.306 29.728 123.378 29.524 123.426 29.308C123.474 29.068 123.498 28.852 123.498 28.66V9.472C123.498 9.136 123.402 8.752 123.21 8.32C123.018 7.888 122.742 7.648 122.382 7.6H122.202V7.24ZM125.946 8.5V18.22H127.026C127.986 18.22 128.838 18.088 129.582 17.824C130.35 17.56 130.986 17.212 131.49 16.78C131.994 16.348 132.378 15.856 132.642 15.304C132.906 14.752 133.038 14.188 133.038 13.612C133.038 12.916 132.918 12.268 132.678 11.668C132.462 11.044 132.09 10.504 131.562 10.048C131.058 9.568 130.386 9.196 129.546 8.932C128.706 8.644 127.674 8.5 126.45 8.5H125.946ZM139.956 30.64H140.136C140.328 30.64 140.496 30.58 140.64 30.46C140.784 30.316 140.904 30.148 141 29.956C141.12 29.764 141.204 29.56 141.252 29.344C141.324 29.128 141.36 28.924 141.36 28.732V9.472C141.36 9.304 141.324 9.112 141.252 8.896C141.204 8.68 141.12 8.476 141 8.284C140.904 8.092 140.784 7.936 140.64 7.816C140.496 7.672 140.328 7.6 140.136 7.6H139.956V7.24H153.816V10.588H153.456C153.408 10.036 153.192 9.556 152.808 9.148C152.424 8.716 151.824 8.5 151.008 8.5H143.772V17.608H149.748C150.3 17.608 150.756 17.44 151.116 17.104C151.5 16.768 151.692 16.372 151.692 15.916H152.052V20.416H151.692C151.692 19.984 151.512 19.612 151.152 19.3C150.792 18.988 150.324 18.832 149.748 18.832H143.772V29.74H151.656C152.112 29.74 152.508 29.632 152.844 29.416C153.18 29.2 153.456 28.948 153.672 28.66C153.912 28.348 154.08 28.024 154.176 27.688C154.296 27.328 154.356 27.028 154.356 26.788H154.716V31H139.956V30.64ZM163.764 30.64H163.944V31H158.868V30.64H159.048C159.216 30.64 159.372 30.568 159.516 30.424C159.66 30.28 159.78 30.112 159.876 29.92C159.996 29.728 160.08 29.524 160.128 29.308C160.176 29.068 160.2 28.852 160.2 28.66V9.472C160.2 9.304 160.176 9.112 160.128 8.896C160.08 8.68 159.996 8.476 159.876 8.284C159.78 8.092 159.66 7.936 159.516 7.816C159.372 7.672 159.216 7.6 159.048 7.6H158.868V7.24H165.132C167.532 7.24 169.38 7.708 170.676 8.644C171.996 9.58 172.656 10.96 172.656 12.784C172.656 13.696 172.5 14.5 172.188 15.196C171.9 15.868 171.504 16.456 171 16.96C170.496 17.44 169.896 17.836 169.2 18.148C168.528 18.436 167.808 18.652 167.04 18.796L169.632 22.756C170.256 23.716 170.892 24.664 171.54 25.6C172.188 26.512 172.824 27.46 173.448 28.444C173.616 28.684 173.796 28.936 173.988 29.2C174.204 29.464 174.42 29.704 174.636 29.92C174.876 30.136 175.116 30.316 175.356 30.46C175.62 30.58 175.884 30.64 176.148 30.64V31H174.6C173.64 31 172.848 30.772 172.224 30.316C171.624 29.836 171.12 29.284 170.712 28.66C169.632 27.076 168.552 25.468 167.472 23.836C166.416 22.204 165.36 20.596 164.304 19.012C164.04 18.988 163.752 18.964 163.44 18.94C163.152 18.892 162.876 18.844 162.612 18.796V28.66C162.612 28.852 162.636 29.068 162.684 29.308C162.732 29.524 162.804 29.728 162.9 29.92C163.02 30.112 163.14 30.28 163.26 30.424C163.404 30.568 163.572 30.64 163.764 30.64ZM162.612 8.464V17.608H162.792C162.984 17.632 163.284 17.656 163.692 17.68C164.124 17.68 164.652 17.68 165.276 17.68C165.78 17.68 166.308 17.608 166.86 17.464C167.436 17.296 167.964 17.032 168.444 16.672C168.948 16.288 169.356 15.796 169.668 15.196C170.004 14.596 170.172 13.84 170.172 12.928C170.172 12.016 169.992 11.272 169.632 10.696C169.296 10.12 168.816 9.664 168.192 9.328C167.592 8.992 166.86 8.764 165.996 8.644C165.132 8.524 164.184 8.464 163.152 8.464H162.612ZM179.894 7.24H185.042V7.6H184.862C184.694 7.6 184.538 7.672 184.394 7.816C184.25 7.936 184.13 8.092 184.034 8.284C183.938 8.452 183.854 8.656 183.782 8.896C183.734 9.112 183.71 9.304 183.71 9.472V28.66C183.71 28.852 183.734 29.068 183.782 29.308C183.83 29.524 183.902 29.728 183.998 29.92C184.118 30.112 184.238 30.28 184.358 30.424C184.502 30.568 184.67 30.64 184.862 30.64H185.042V31H179.894V30.64H180.074C180.266 30.64 180.434 30.58 180.578 30.46C180.722 30.316 180.842 30.148 180.938 29.956C181.058 29.74 181.142 29.524 181.19 29.308C181.238 29.068 181.262 28.852 181.262 28.66V9.472C181.262 9.304 181.238 9.112 181.19 8.896C181.142 8.68 181.058 8.476 180.938 8.284C180.842 8.092 180.722 7.936 180.578 7.816C180.434 7.672 180.266 7.6 180.074 7.6H179.894V7.24ZM203.696 30.64H203.876C204.452 30.64 204.74 30.376 204.74 29.848C204.74 29.656 204.704 29.452 204.632 29.236L201.392 20.488H195.092L191.96 29.092C191.888 29.284 191.852 29.464 191.852 29.632C191.852 29.944 191.936 30.196 192.104 30.388C192.272 30.556 192.452 30.64 192.644 30.64H192.824V31H188.828V30.64H189.008C189.32 30.64 189.62 30.46 189.908 30.1C190.22 29.716 190.472 29.272 190.664 28.768L198.908 6.808L206.972 28.552C207.14 29.032 207.368 29.5 207.656 29.956C207.968 30.412 208.364 30.64 208.844 30.64H209.024V31H203.696V30.64ZM195.452 19.264H200.996L198.224 11.74L195.452 19.264ZM212.618 30.64H212.798C212.99 30.64 213.158 30.58 213.302 30.46C213.446 30.316 213.566 30.148 213.662 29.956C213.782 29.764 213.866 29.56 213.914 29.344C213.986 29.128 214.022 28.924 214.022 28.732V9.472C214.022 9.304 213.986 9.112 213.914 8.896C213.866 8.68 213.782 8.476 213.662 8.284C213.566 8.092 213.446 7.936 213.302 7.816C213.158 7.672 212.99 7.6 212.798 7.6H212.618V7.24H217.802V7.6H217.622C217.43 7.6 217.262 7.672 217.118 7.816C216.974 7.936 216.854 8.092 216.758 8.284C216.662 8.476 216.578 8.68 216.506 8.896C216.458 9.112 216.434 9.304 216.434 9.472V29.668H224.318C224.774 29.668 225.17 29.56 225.506 29.344C225.842 29.128 226.118 28.864 226.334 28.552C226.574 28.216 226.742 27.868 226.838 27.508C226.958 27.124 227.018 26.776 227.018 26.464H227.378V31H212.618V30.64Z" fill="white"/>
<path d="M88.26 47.06C88.028 46.572 87.692 46.196 87.252 45.932C86.812 45.66 86.3 45.524 85.716 45.524C85.132 45.524 84.604 45.66 84.132 45.932C83.668 46.196 83.3 46.58 83.028 47.084C82.764 47.58 82.632 48.156 82.632 48.812C82.632 49.468 82.764 50.044 83.028 50.54C83.3 51.036 83.668 51.42 84.132 51.692C84.604 51.956 85.132 52.088 85.716 52.088C86.532 52.088 87.204 51.844 87.732 51.356C88.26 50.868 88.568 50.208 88.656 49.376H85.32V48.488H89.82V49.328C89.756 50.016 89.54 50.648 89.172 51.224C88.804 51.792 88.32 52.244 87.72 52.58C87.12 52.908 86.452 53.072 85.716 53.072C84.94 53.072 84.232 52.892 83.592 52.532C82.952 52.164 82.444 51.656 82.068 51.008C81.7 50.36 81.516 49.628 81.516 48.812C81.516 47.996 81.7 47.264 82.068 46.616C82.444 45.96 82.952 45.452 83.592 45.092C84.232 44.724 84.94 44.54 85.716 44.54C86.604 44.54 87.388 44.76 88.068 45.2C88.756 45.64 89.256 46.26 89.568 47.06H88.26ZM102.268 53L100.276 49.58H98.9558V53H97.8638V44.636H100.564C101.196 44.636 101.728 44.744 102.16 44.96C102.6 45.176 102.928 45.468 103.144 45.836C103.36 46.204 103.468 46.624 103.468 47.096C103.468 47.672 103.3 48.18 102.964 48.62C102.636 49.06 102.14 49.352 101.476 49.496L103.576 53H102.268ZM98.9558 48.704H100.564C101.156 48.704 101.6 48.56 101.896 48.272C102.192 47.976 102.34 47.584 102.34 47.096C102.34 46.6 102.192 46.216 101.896 45.944C101.608 45.672 101.164 45.536 100.564 45.536H98.9558V48.704ZM116.709 51.14H113.061L112.389 53H111.237L114.261 44.684H115.521L118.533 53H117.381L116.709 51.14ZM116.397 50.252L114.885 46.028L113.373 50.252H116.397ZM133.027 53H131.935L127.543 46.34V53H126.451V44.624H127.543L131.935 51.272V44.624H133.027V53ZM144.092 44.636C145.004 44.636 145.792 44.808 146.456 45.152C147.128 45.488 147.64 45.972 147.992 46.604C148.352 47.236 148.532 47.98 148.532 48.836C148.532 49.692 148.352 50.436 147.992 51.068C147.64 51.692 147.128 52.172 146.456 52.508C145.792 52.836 145.004 53 144.092 53H141.488V44.636H144.092ZM144.092 52.1C145.172 52.1 145.996 51.816 146.564 51.248C147.132 50.672 147.416 49.868 147.416 48.836C147.416 47.796 147.128 46.984 146.552 46.4C145.984 45.816 145.164 45.524 144.092 45.524H142.58V52.1H144.092ZM172.816 44.636V53H171.724V49.208H167.464V53H166.372V44.636H167.464V48.308H171.724V44.636H172.816ZM185.072 53.084C184.296 53.084 183.588 52.904 182.948 52.544C182.308 52.176 181.8 51.668 181.424 51.02C181.056 50.364 180.872 49.628 180.872 48.812C180.872 47.996 181.056 47.264 181.424 46.616C181.8 45.96 182.308 45.452 182.948 45.092C183.588 44.724 184.296 44.54 185.072 44.54C185.856 44.54 186.568 44.724 187.208 45.092C187.848 45.452 188.352 45.956 188.72 46.604C189.088 47.252 189.272 47.988 189.272 48.812C189.272 49.636 189.088 50.372 188.72 51.02C188.352 51.668 187.848 52.176 187.208 52.544C186.568 52.904 185.856 53.084 185.072 53.084ZM185.072 52.136C185.656 52.136 186.18 52 186.644 51.728C187.116 51.456 187.484 51.068 187.748 50.564C188.02 50.06 188.156 49.476 188.156 48.812C188.156 48.14 188.02 47.556 187.748 47.06C187.484 46.556 187.12 46.168 186.656 45.896C186.192 45.624 185.664 45.488 185.072 45.488C184.48 45.488 183.952 45.624 183.488 45.896C183.024 46.168 182.656 46.556 182.384 47.06C182.12 47.556 181.988 48.14 181.988 48.812C181.988 49.476 182.12 50.06 182.384 50.564C182.656 51.068 183.024 51.456 183.488 51.728C183.96 52 184.488 52.136 185.072 52.136ZM202.462 44.636V45.524H200.182V53H199.09V45.524H196.798V44.636H202.462ZM211.498 45.524V48.32H214.546V49.22H211.498V52.1H214.906V53H210.406V44.624H214.906V45.524H211.498ZM224.25 52.112H227.178V53H223.158V44.636H224.25V52.112Z" fill="white"/>
</svg>
